<mxfile host="app.diagrams.net" agent="Mozilla/5.0 (Windows NT 10.0; Win64; x64) AppleWebKit/537.36 (KHTML, like Gecko) Chrome/129.0.0.0 Safari/537.36" version="24.7.17">
  <diagram name="Página-1" id="Ik9LZU5Wr5_Ub2F_OQJv">
    <mxGraphModel grid="1" page="1" gridSize="10" guides="1" tooltips="1" connect="1" arrows="1" fold="1" pageScale="1" pageWidth="827" pageHeight="1169" math="0" shadow="0">
      <root>
        <mxCell id="0" />
        <mxCell id="1" parent="0" />
        <mxCell id="ix0shjDQyRabNGcpZPaB-1" value="" style="endArrow=none;html=1;rounded=0;" edge="1" parent="1">
          <mxGeometry width="50" height="50" relative="1" as="geometry">
            <mxPoint x="240" y="300" as="sourcePoint" />
            <mxPoint x="1380" y="300" as="targetPoint" />
          </mxGeometry>
        </mxCell>
        <mxCell id="ix0shjDQyRabNGcpZPaB-2" value="" style="endArrow=none;html=1;rounded=0;" edge="1" parent="1">
          <mxGeometry width="50" height="50" relative="1" as="geometry">
            <mxPoint x="380" y="240" as="sourcePoint" />
            <mxPoint x="380" y="1700" as="targetPoint" />
          </mxGeometry>
        </mxCell>
        <mxCell id="ix0shjDQyRabNGcpZPaB-3" value="" style="endArrow=none;html=1;rounded=0;" edge="1" parent="1">
          <mxGeometry width="50" height="50" relative="1" as="geometry">
            <mxPoint x="750" y="250" as="sourcePoint" />
            <mxPoint x="750" y="1700" as="targetPoint" />
          </mxGeometry>
        </mxCell>
        <mxCell id="ix0shjDQyRabNGcpZPaB-4" value="" style="endArrow=none;html=1;rounded=0;" edge="1" parent="1">
          <mxGeometry width="50" height="50" relative="1" as="geometry">
            <mxPoint x="1048.89" y="225" as="sourcePoint" />
            <mxPoint x="1050" y="1700" as="targetPoint" />
          </mxGeometry>
        </mxCell>
        <mxCell id="ix0shjDQyRabNGcpZPaB-5" value="" style="endArrow=none;html=1;rounded=0;" edge="1" parent="1">
          <mxGeometry width="50" height="50" relative="1" as="geometry">
            <mxPoint x="1360" y="250" as="sourcePoint" />
            <mxPoint x="1360" y="1700" as="targetPoint" />
          </mxGeometry>
        </mxCell>
        <mxCell id="ix0shjDQyRabNGcpZPaB-6" value="Usuario" style="shape=umlActor;verticalLabelPosition=bottom;verticalAlign=top;html=1;outlineConnect=0;" vertex="1" parent="1">
          <mxGeometry x="290" y="190" width="50" height="90" as="geometry" />
        </mxCell>
        <mxCell id="ix0shjDQyRabNGcpZPaB-7" value="Interfaz" style="text;html=1;align=center;verticalAlign=middle;resizable=0;points=[];autosize=1;strokeColor=none;fillColor=none;" vertex="1" parent="1">
          <mxGeometry x="510" y="250" width="60" height="30" as="geometry" />
        </mxCell>
        <mxCell id="ix0shjDQyRabNGcpZPaB-8" value="Sistema" style="text;html=1;align=center;verticalAlign=middle;resizable=0;points=[];autosize=1;strokeColor=none;fillColor=none;" vertex="1" parent="1">
          <mxGeometry x="780" y="250" width="70" height="30" as="geometry" />
        </mxCell>
        <mxCell id="ix0shjDQyRabNGcpZPaB-9" value="Base de datos" style="text;html=1;align=center;verticalAlign=middle;resizable=0;points=[];autosize=1;strokeColor=none;fillColor=none;" vertex="1" parent="1">
          <mxGeometry x="1050" y="240" width="100" height="30" as="geometry" />
        </mxCell>
        <mxCell id="ix0shjDQyRabNGcpZPaB-10" value="" style="points=[[0.145,0.145,0],[0.5,0,0],[0.855,0.145,0],[1,0.5,0],[0.855,0.855,0],[0.5,1,0],[0.145,0.855,0],[0,0.5,0]];shape=mxgraph.bpmn.event;html=1;verticalLabelPosition=bottom;labelBackgroundColor=#ffffff;verticalAlign=top;align=center;perimeter=ellipsePerimeter;outlineConnect=0;aspect=fixed;outline=standard;symbol=general;shadow=1;strokeColor=default;fontFamily=Helvetica;fontSize=12;fontColor=default;fillColor=#000000;" vertex="1" parent="1">
          <mxGeometry x="140" y="1410" width="50" height="50" as="geometry" />
        </mxCell>
        <mxCell id="ix0shjDQyRabNGcpZPaB-11" value="" style="edgeStyle=orthogonalEdgeStyle;rounded=0;orthogonalLoop=1;jettySize=auto;html=1;" edge="1" parent="1" source="ix0shjDQyRabNGcpZPaB-19" target="ix0shjDQyRabNGcpZPaB-21">
          <mxGeometry relative="1" as="geometry" />
        </mxCell>
        <mxCell id="ix0shjDQyRabNGcpZPaB-12" style="edgeStyle=orthogonalEdgeStyle;rounded=0;orthogonalLoop=1;jettySize=auto;html=1;exitX=1;exitY=0.5;exitDx=0;exitDy=0;entryX=0;entryY=0.5;entryDx=0;entryDy=0;" edge="1" parent="1" source="ix0shjDQyRabNGcpZPaB-19" target="ix0shjDQyRabNGcpZPaB-39">
          <mxGeometry relative="1" as="geometry" />
        </mxCell>
        <mxCell id="ix0shjDQyRabNGcpZPaB-13" style="edgeStyle=orthogonalEdgeStyle;rounded=0;orthogonalLoop=1;jettySize=auto;html=1;exitX=1;exitY=0.5;exitDx=0;exitDy=0;entryX=0;entryY=0.5;entryDx=0;entryDy=0;" edge="1" parent="1" source="ix0shjDQyRabNGcpZPaB-19" target="ix0shjDQyRabNGcpZPaB-41">
          <mxGeometry relative="1" as="geometry" />
        </mxCell>
        <mxCell id="ix0shjDQyRabNGcpZPaB-14" style="edgeStyle=orthogonalEdgeStyle;rounded=0;orthogonalLoop=1;jettySize=auto;html=1;exitX=1;exitY=0.5;exitDx=0;exitDy=0;entryX=0;entryY=0.5;entryDx=0;entryDy=0;" edge="1" parent="1" source="ix0shjDQyRabNGcpZPaB-19" target="ix0shjDQyRabNGcpZPaB-37">
          <mxGeometry relative="1" as="geometry" />
        </mxCell>
        <mxCell id="ix0shjDQyRabNGcpZPaB-15" style="edgeStyle=orthogonalEdgeStyle;rounded=0;orthogonalLoop=1;jettySize=auto;html=1;exitX=1;exitY=0.5;exitDx=0;exitDy=0;entryX=0;entryY=0.5;entryDx=0;entryDy=0;" edge="1" parent="1" source="ix0shjDQyRabNGcpZPaB-19" target="ix0shjDQyRabNGcpZPaB-79">
          <mxGeometry relative="1" as="geometry" />
        </mxCell>
        <mxCell id="ix0shjDQyRabNGcpZPaB-16" style="edgeStyle=orthogonalEdgeStyle;rounded=0;orthogonalLoop=1;jettySize=auto;html=1;exitX=1;exitY=0.5;exitDx=0;exitDy=0;entryX=0;entryY=0.5;entryDx=0;entryDy=0;" edge="1" parent="1" source="ix0shjDQyRabNGcpZPaB-19" target="ix0shjDQyRabNGcpZPaB-81">
          <mxGeometry relative="1" as="geometry" />
        </mxCell>
        <mxCell id="ix0shjDQyRabNGcpZPaB-17" style="edgeStyle=orthogonalEdgeStyle;rounded=0;orthogonalLoop=1;jettySize=auto;html=1;exitX=1;exitY=0.5;exitDx=0;exitDy=0;entryX=0;entryY=0.5;entryDx=0;entryDy=0;" edge="1" parent="1" source="ix0shjDQyRabNGcpZPaB-19" target="ix0shjDQyRabNGcpZPaB-83">
          <mxGeometry relative="1" as="geometry" />
        </mxCell>
        <mxCell id="ix0shjDQyRabNGcpZPaB-19" value="Iniciar sesión" style="rounded=0;whiteSpace=wrap;html=1;" vertex="1" parent="1">
          <mxGeometry x="245" y="355" width="120" height="60" as="geometry" />
        </mxCell>
        <mxCell id="FrG5FqAlyMgNkk6xScvO-10" style="edgeStyle=orthogonalEdgeStyle;rounded=0;orthogonalLoop=1;jettySize=auto;html=1;exitX=1;exitY=0.5;exitDx=0;exitDy=0;entryX=0;entryY=0.5;entryDx=0;entryDy=0;" edge="1" parent="1" source="ix0shjDQyRabNGcpZPaB-21" target="ix0shjDQyRabNGcpZPaB-43">
          <mxGeometry relative="1" as="geometry" />
        </mxCell>
        <mxCell id="ix0shjDQyRabNGcpZPaB-21" value="Opción de &quot;Generar factura&quot;" style="rounded=0;whiteSpace=wrap;html=1;" vertex="1" parent="1">
          <mxGeometry x="410" y="355" width="120" height="60" as="geometry" />
        </mxCell>
        <mxCell id="ix0shjDQyRabNGcpZPaB-22" style="edgeStyle=orthogonalEdgeStyle;rounded=0;orthogonalLoop=1;jettySize=auto;html=1;exitX=1;exitY=0.5;exitDx=0;exitDy=0;exitPerimeter=0;entryX=0;entryY=0.5;entryDx=0;entryDy=0;" edge="1" parent="1" source="ix0shjDQyRabNGcpZPaB-23" target="ix0shjDQyRabNGcpZPaB-19">
          <mxGeometry relative="1" as="geometry" />
        </mxCell>
        <mxCell id="ix0shjDQyRabNGcpZPaB-23" value="" style="points=[[0.145,0.145,0],[0.5,0,0],[0.855,0.145,0],[1,0.5,0],[0.855,0.855,0],[0.5,1,0],[0.145,0.855,0],[0,0.5,0]];shape=mxgraph.bpmn.event;html=1;verticalLabelPosition=bottom;labelBackgroundColor=#ffffff;verticalAlign=top;align=center;perimeter=ellipsePerimeter;outlineConnect=0;aspect=fixed;outline=standard;symbol=general;shadow=1;strokeColor=default;fontFamily=Helvetica;fontSize=12;fontColor=default;fillColor=#000000;" vertex="1" parent="1">
          <mxGeometry x="120" y="360" width="50" height="50" as="geometry" />
        </mxCell>
        <mxCell id="ix0shjDQyRabNGcpZPaB-24" style="edgeStyle=orthogonalEdgeStyle;rounded=0;orthogonalLoop=1;jettySize=auto;html=1;exitX=1;exitY=0.5;exitDx=0;exitDy=0;entryX=0.5;entryY=0;entryDx=0;entryDy=0;" edge="1" parent="1" source="ix0shjDQyRabNGcpZPaB-25" target="ix0shjDQyRabNGcpZPaB-35">
          <mxGeometry relative="1" as="geometry" />
        </mxCell>
        <mxCell id="ix0shjDQyRabNGcpZPaB-25" value="Guardar datos" style="rounded=0;whiteSpace=wrap;html=1;" vertex="1" parent="1">
          <mxGeometry x="1085" y="390" width="120" height="60" as="geometry" />
        </mxCell>
        <mxCell id="FrG5FqAlyMgNkk6xScvO-13" style="edgeStyle=orthogonalEdgeStyle;rounded=0;orthogonalLoop=1;jettySize=auto;html=1;exitX=1;exitY=0.5;exitDx=0;exitDy=0;entryX=0;entryY=0.5;entryDx=0;entryDy=0;" edge="1" parent="1" source="ix0shjDQyRabNGcpZPaB-28" target="ix0shjDQyRabNGcpZPaB-45">
          <mxGeometry relative="1" as="geometry" />
        </mxCell>
        <mxCell id="FrG5FqAlyMgNkk6xScvO-15" style="edgeStyle=orthogonalEdgeStyle;rounded=0;orthogonalLoop=1;jettySize=auto;html=1;exitX=1;exitY=0.5;exitDx=0;exitDy=0;entryX=0;entryY=0.5;entryDx=0;entryDy=0;" edge="1" parent="1" source="ix0shjDQyRabNGcpZPaB-28" target="ix0shjDQyRabNGcpZPaB-47">
          <mxGeometry relative="1" as="geometry" />
        </mxCell>
        <mxCell id="ix0shjDQyRabNGcpZPaB-28" value="Se valida que los campos sean llenados correctamente" style="rounded=0;whiteSpace=wrap;html=1;" vertex="1" parent="1">
          <mxGeometry x="760" y="490" width="120" height="60" as="geometry" />
        </mxCell>
        <mxCell id="ix0shjDQyRabNGcpZPaB-29" style="edgeStyle=orthogonalEdgeStyle;rounded=0;orthogonalLoop=1;jettySize=auto;html=1;exitX=0.5;exitY=1;exitDx=0;exitDy=0;entryX=0.5;entryY=0;entryDx=0;entryDy=0;" edge="1" parent="1" source="ix0shjDQyRabNGcpZPaB-30" target="ix0shjDQyRabNGcpZPaB-62">
          <mxGeometry relative="1" as="geometry" />
        </mxCell>
        <mxCell id="ix0shjDQyRabNGcpZPaB-30" value="Envía datos solicitados" style="rounded=0;whiteSpace=wrap;html=1;" vertex="1" parent="1">
          <mxGeometry x="1100" y="600" width="120" height="60" as="geometry" />
        </mxCell>
        <mxCell id="FrG5FqAlyMgNkk6xScvO-16" style="edgeStyle=orthogonalEdgeStyle;rounded=0;orthogonalLoop=1;jettySize=auto;html=1;exitX=0.5;exitY=1;exitDx=0;exitDy=0;entryX=1;entryY=0.5;entryDx=0;entryDy=0;" edge="1" parent="1" source="ix0shjDQyRabNGcpZPaB-35" target="ix0shjDQyRabNGcpZPaB-74">
          <mxGeometry relative="1" as="geometry" />
        </mxCell>
        <mxCell id="FrG5FqAlyMgNkk6xScvO-18" value="SI" style="edgeLabel;html=1;align=center;verticalAlign=middle;resizable=0;points=[];" connectable="0" vertex="1" parent="FrG5FqAlyMgNkk6xScvO-16">
          <mxGeometry x="0.8432" y="-3" relative="1" as="geometry">
            <mxPoint as="offset" />
          </mxGeometry>
        </mxCell>
        <mxCell id="FrG5FqAlyMgNkk6xScvO-17" style="edgeStyle=orthogonalEdgeStyle;rounded=0;orthogonalLoop=1;jettySize=auto;html=1;exitX=0.5;exitY=1;exitDx=0;exitDy=0;entryX=1;entryY=0.5;entryDx=0;entryDy=0;" edge="1" parent="1" source="ix0shjDQyRabNGcpZPaB-35" target="ix0shjDQyRabNGcpZPaB-70">
          <mxGeometry relative="1" as="geometry" />
        </mxCell>
        <mxCell id="FrG5FqAlyMgNkk6xScvO-19" value="SI" style="edgeLabel;html=1;align=center;verticalAlign=middle;resizable=0;points=[];" connectable="0" vertex="1" parent="FrG5FqAlyMgNkk6xScvO-17">
          <mxGeometry x="0.8476" y="-2" relative="1" as="geometry">
            <mxPoint as="offset" />
          </mxGeometry>
        </mxCell>
        <mxCell id="FrG5FqAlyMgNkk6xScvO-20" style="edgeStyle=orthogonalEdgeStyle;rounded=0;orthogonalLoop=1;jettySize=auto;html=1;exitX=1;exitY=0.5;exitDx=0;exitDy=0;entryX=1;entryY=0.5;entryDx=0;entryDy=0;" edge="1" parent="1" source="ix0shjDQyRabNGcpZPaB-35" target="ix0shjDQyRabNGcpZPaB-91">
          <mxGeometry relative="1" as="geometry">
            <Array as="points">
              <mxPoint x="1340" y="845" />
              <mxPoint x="1340" y="1620" />
            </Array>
          </mxGeometry>
        </mxCell>
        <mxCell id="FrG5FqAlyMgNkk6xScvO-21" value="NO" style="edgeLabel;html=1;align=center;verticalAlign=middle;resizable=0;points=[];" connectable="0" vertex="1" parent="FrG5FqAlyMgNkk6xScvO-20">
          <mxGeometry x="0.8658" y="1" relative="1" as="geometry">
            <mxPoint x="-1" as="offset" />
          </mxGeometry>
        </mxCell>
        <mxCell id="ix0shjDQyRabNGcpZPaB-35" value="¿Los datos se guardan?" style="rhombus;whiteSpace=wrap;html=1;" vertex="1" parent="1">
          <mxGeometry x="1251" y="800" width="85" height="90" as="geometry" />
        </mxCell>
        <mxCell id="FrG5FqAlyMgNkk6xScvO-6" style="edgeStyle=orthogonalEdgeStyle;rounded=0;orthogonalLoop=1;jettySize=auto;html=1;exitX=1;exitY=0.5;exitDx=0;exitDy=0;entryX=0;entryY=0.5;entryDx=0;entryDy=0;" edge="1" parent="1" source="ix0shjDQyRabNGcpZPaB-37" target="ix0shjDQyRabNGcpZPaB-43">
          <mxGeometry relative="1" as="geometry" />
        </mxCell>
        <mxCell id="ix0shjDQyRabNGcpZPaB-37" value="Opción de &quot;Registrar cliente&quot;" style="rounded=0;whiteSpace=wrap;html=1;" vertex="1" parent="1">
          <mxGeometry x="410" y="620" width="120" height="60" as="geometry" />
        </mxCell>
        <mxCell id="FrG5FqAlyMgNkk6xScvO-8" style="edgeStyle=orthogonalEdgeStyle;rounded=0;orthogonalLoop=1;jettySize=auto;html=1;exitX=1;exitY=0.5;exitDx=0;exitDy=0;entryX=0;entryY=0.5;entryDx=0;entryDy=0;" edge="1" parent="1" source="ix0shjDQyRabNGcpZPaB-39" target="ix0shjDQyRabNGcpZPaB-43">
          <mxGeometry relative="1" as="geometry" />
        </mxCell>
        <mxCell id="ix0shjDQyRabNGcpZPaB-39" value="Opción de &quot;Generar boleta&quot;" style="rounded=0;whiteSpace=wrap;html=1;" vertex="1" parent="1">
          <mxGeometry x="410" y="440" width="120" height="60" as="geometry" />
        </mxCell>
        <mxCell id="FrG5FqAlyMgNkk6xScvO-7" style="edgeStyle=orthogonalEdgeStyle;rounded=0;orthogonalLoop=1;jettySize=auto;html=1;exitX=1;exitY=0.5;exitDx=0;exitDy=0;entryX=0;entryY=0.5;entryDx=0;entryDy=0;" edge="1" parent="1" source="ix0shjDQyRabNGcpZPaB-41" target="ix0shjDQyRabNGcpZPaB-43">
          <mxGeometry relative="1" as="geometry" />
        </mxCell>
        <mxCell id="ix0shjDQyRabNGcpZPaB-41" value="Opción de &quot;Generar cotización&quot;" style="rounded=0;whiteSpace=wrap;html=1;" vertex="1" parent="1">
          <mxGeometry x="410" y="530" width="120" height="60" as="geometry" />
        </mxCell>
        <mxCell id="ix0shjDQyRabNGcpZPaB-42" style="edgeStyle=orthogonalEdgeStyle;rounded=0;orthogonalLoop=1;jettySize=auto;html=1;exitX=1;exitY=0.5;exitDx=0;exitDy=0;entryX=0;entryY=0.5;entryDx=0;entryDy=0;" edge="1" parent="1" source="ix0shjDQyRabNGcpZPaB-43" target="ix0shjDQyRabNGcpZPaB-28">
          <mxGeometry relative="1" as="geometry" />
        </mxCell>
        <mxCell id="ix0shjDQyRabNGcpZPaB-43" value="Llenar formulario" style="rounded=0;whiteSpace=wrap;html=1;" vertex="1" parent="1">
          <mxGeometry x="590" y="490" width="120" height="60" as="geometry" />
        </mxCell>
        <mxCell id="ix0shjDQyRabNGcpZPaB-44" style="edgeStyle=orthogonalEdgeStyle;rounded=0;orthogonalLoop=1;jettySize=auto;html=1;exitX=1;exitY=0.5;exitDx=0;exitDy=0;entryX=0;entryY=0.5;entryDx=0;entryDy=0;" edge="1" parent="1" source="ix0shjDQyRabNGcpZPaB-45" target="ix0shjDQyRabNGcpZPaB-25">
          <mxGeometry relative="1" as="geometry" />
        </mxCell>
        <mxCell id="ix0shjDQyRabNGcpZPaB-45" value="Enviar datos &quot;Datos del formulario&quot;" style="rounded=0;whiteSpace=wrap;html=1;" vertex="1" parent="1">
          <mxGeometry x="920" y="390" width="120" height="60" as="geometry" />
        </mxCell>
        <mxCell id="ix0shjDQyRabNGcpZPaB-46" style="edgeStyle=orthogonalEdgeStyle;rounded=0;orthogonalLoop=1;jettySize=auto;html=1;exitX=1;exitY=0.5;exitDx=0;exitDy=0;entryX=0;entryY=0.5;entryDx=0;entryDy=0;" edge="1" parent="1" source="ix0shjDQyRabNGcpZPaB-47" target="ix0shjDQyRabNGcpZPaB-30">
          <mxGeometry relative="1" as="geometry" />
        </mxCell>
        <mxCell id="ix0shjDQyRabNGcpZPaB-47" value="Solicitar datos del cliente buscado" style="rounded=0;whiteSpace=wrap;html=1;" vertex="1" parent="1">
          <mxGeometry x="920" y="600" width="120" height="60" as="geometry" />
        </mxCell>
        <mxCell id="ix0shjDQyRabNGcpZPaB-48" style="edgeStyle=orthogonalEdgeStyle;rounded=0;orthogonalLoop=1;jettySize=auto;html=1;exitX=0;exitY=0.5;exitDx=0;exitDy=0;entryX=1;entryY=0.5;entryDx=0;entryDy=0;" edge="1" parent="1" source="ix0shjDQyRabNGcpZPaB-62" target="ix0shjDQyRabNGcpZPaB-66">
          <mxGeometry relative="1" as="geometry" />
        </mxCell>
        <mxCell id="ix0shjDQyRabNGcpZPaB-49" value="SI" style="edgeLabel;html=1;align=center;verticalAlign=middle;resizable=0;points=[];" vertex="1" connectable="0" parent="ix0shjDQyRabNGcpZPaB-48">
          <mxGeometry x="0.7715" y="1" relative="1" as="geometry">
            <mxPoint as="offset" />
          </mxGeometry>
        </mxCell>
        <mxCell id="ix0shjDQyRabNGcpZPaB-50" style="edgeStyle=orthogonalEdgeStyle;rounded=0;orthogonalLoop=1;jettySize=auto;html=1;exitX=0;exitY=0.5;exitDx=0;exitDy=0;entryX=1;entryY=0.5;entryDx=0;entryDy=0;" edge="1" parent="1" source="ix0shjDQyRabNGcpZPaB-62" target="ix0shjDQyRabNGcpZPaB-68">
          <mxGeometry relative="1" as="geometry" />
        </mxCell>
        <mxCell id="ix0shjDQyRabNGcpZPaB-51" value="SI" style="edgeLabel;html=1;align=center;verticalAlign=middle;resizable=0;points=[];" vertex="1" connectable="0" parent="ix0shjDQyRabNGcpZPaB-50">
          <mxGeometry x="0.7996" y="-3" relative="1" as="geometry">
            <mxPoint as="offset" />
          </mxGeometry>
        </mxCell>
        <mxCell id="ix0shjDQyRabNGcpZPaB-52" style="edgeStyle=orthogonalEdgeStyle;rounded=0;orthogonalLoop=1;jettySize=auto;html=1;exitX=0;exitY=0.5;exitDx=0;exitDy=0;entryX=1;entryY=0.5;entryDx=0;entryDy=0;" edge="1" parent="1" source="ix0shjDQyRabNGcpZPaB-62" target="ix0shjDQyRabNGcpZPaB-77">
          <mxGeometry relative="1" as="geometry" />
        </mxCell>
        <mxCell id="ix0shjDQyRabNGcpZPaB-53" value="SI" style="edgeLabel;html=1;align=center;verticalAlign=middle;resizable=0;points=[];" vertex="1" connectable="0" parent="ix0shjDQyRabNGcpZPaB-52">
          <mxGeometry x="0.8081" y="2" relative="1" as="geometry">
            <mxPoint x="1" as="offset" />
          </mxGeometry>
        </mxCell>
        <mxCell id="ix0shjDQyRabNGcpZPaB-60" style="edgeStyle=orthogonalEdgeStyle;rounded=0;orthogonalLoop=1;jettySize=auto;html=1;exitX=0.5;exitY=1;exitDx=0;exitDy=0;entryX=1;entryY=0.5;entryDx=0;entryDy=0;" edge="1" parent="1" source="ix0shjDQyRabNGcpZPaB-62" target="ix0shjDQyRabNGcpZPaB-88">
          <mxGeometry relative="1" as="geometry" />
        </mxCell>
        <mxCell id="ix0shjDQyRabNGcpZPaB-61" value="NO" style="edgeLabel;html=1;align=center;verticalAlign=middle;resizable=0;points=[];" vertex="1" connectable="0" parent="ix0shjDQyRabNGcpZPaB-60">
          <mxGeometry x="0.8493" y="-1" relative="1" as="geometry">
            <mxPoint x="1" as="offset" />
          </mxGeometry>
        </mxCell>
        <mxCell id="ix0shjDQyRabNGcpZPaB-62" value="¿Los datos se envían correctamente?" style="rhombus;whiteSpace=wrap;html=1;" vertex="1" parent="1">
          <mxGeometry x="1095" y="710" width="130" height="130" as="geometry" />
        </mxCell>
        <mxCell id="ix0shjDQyRabNGcpZPaB-66" value="Se pregunta ¿Esta seguro de eliminar cliente?" style="rounded=0;whiteSpace=wrap;html=1;" vertex="1" parent="1">
          <mxGeometry x="610" y="1140" width="120" height="60" as="geometry" />
        </mxCell>
        <mxCell id="FrG5FqAlyMgNkk6xScvO-22" style="edgeStyle=orthogonalEdgeStyle;rounded=0;orthogonalLoop=1;jettySize=auto;html=1;exitX=0;exitY=0.5;exitDx=0;exitDy=0;entryX=1;entryY=0.5;entryDx=0;entryDy=0;" edge="1" parent="1" source="ix0shjDQyRabNGcpZPaB-68" target="ix0shjDQyRabNGcpZPaB-93">
          <mxGeometry relative="1" as="geometry" />
        </mxCell>
        <mxCell id="ix0shjDQyRabNGcpZPaB-68" value="Se despliega el formulario de edición de cliente" style="rounded=0;whiteSpace=wrap;html=1;" vertex="1" parent="1">
          <mxGeometry x="610" y="1045" width="120" height="60" as="geometry" />
        </mxCell>
        <mxCell id="FrG5FqAlyMgNkk6xScvO-28" style="edgeStyle=orthogonalEdgeStyle;rounded=0;orthogonalLoop=1;jettySize=auto;html=1;exitX=0;exitY=0.5;exitDx=0;exitDy=0;entryX=1;entryY=0.5;entryDx=0;entryDy=0;" edge="1" parent="1" source="ix0shjDQyRabNGcpZPaB-70" target="ix0shjDQyRabNGcpZPaB-71">
          <mxGeometry relative="1" as="geometry" />
        </mxCell>
        <mxCell id="ix0shjDQyRabNGcpZPaB-70" value="Mensaje &quot;Se registro el cliente con exito&quot;" style="rounded=0;whiteSpace=wrap;html=1;" vertex="1" parent="1">
          <mxGeometry x="610" y="1503.5" width="120" height="60" as="geometry" />
        </mxCell>
        <mxCell id="ix0shjDQyRabNGcpZPaB-71" value="Cerrar Sesión&amp;nbsp;" style="rounded=0;whiteSpace=wrap;html=1;" vertex="1" parent="1">
          <mxGeometry x="240" y="1405" width="120" height="60" as="geometry" />
        </mxCell>
        <mxCell id="ix0shjDQyRabNGcpZPaB-72" style="edgeStyle=orthogonalEdgeStyle;rounded=0;orthogonalLoop=1;jettySize=auto;html=1;exitX=0;exitY=0.5;exitDx=0;exitDy=0;entryX=1;entryY=0.5;entryDx=0;entryDy=0;entryPerimeter=0;" edge="1" parent="1" source="ix0shjDQyRabNGcpZPaB-71" target="ix0shjDQyRabNGcpZPaB-10">
          <mxGeometry relative="1" as="geometry" />
        </mxCell>
        <mxCell id="FrG5FqAlyMgNkk6xScvO-29" style="edgeStyle=orthogonalEdgeStyle;rounded=0;orthogonalLoop=1;jettySize=auto;html=1;exitX=0;exitY=0.5;exitDx=0;exitDy=0;entryX=1;entryY=0.5;entryDx=0;entryDy=0;" edge="1" parent="1" source="ix0shjDQyRabNGcpZPaB-74" target="ix0shjDQyRabNGcpZPaB-71">
          <mxGeometry relative="1" as="geometry" />
        </mxCell>
        <mxCell id="ix0shjDQyRabNGcpZPaB-74" value="Se guarda la Factura-Cotización-Boleta" style="rounded=0;whiteSpace=wrap;html=1;" vertex="1" parent="1">
          <mxGeometry x="610" y="1405" width="120" height="60" as="geometry" />
        </mxCell>
        <mxCell id="ix0shjDQyRabNGcpZPaB-75" style="edgeStyle=orthogonalEdgeStyle;rounded=0;orthogonalLoop=1;jettySize=auto;html=1;exitX=0.5;exitY=1;exitDx=0;exitDy=0;" edge="1" parent="1" source="ix0shjDQyRabNGcpZPaB-35" target="ix0shjDQyRabNGcpZPaB-35">
          <mxGeometry relative="1" as="geometry" />
        </mxCell>
        <mxCell id="ix0shjDQyRabNGcpZPaB-77" value="Se despliega la información del cliente" style="rounded=0;whiteSpace=wrap;html=1;" vertex="1" parent="1">
          <mxGeometry x="610" y="1230" width="120" height="60" as="geometry" />
        </mxCell>
        <mxCell id="FrG5FqAlyMgNkk6xScvO-12" style="edgeStyle=orthogonalEdgeStyle;rounded=0;orthogonalLoop=1;jettySize=auto;html=1;exitX=1;exitY=0.5;exitDx=0;exitDy=0;" edge="1" parent="1" source="ix0shjDQyRabNGcpZPaB-79">
          <mxGeometry relative="1" as="geometry">
            <mxPoint x="650" y="890" as="targetPoint" />
          </mxGeometry>
        </mxCell>
        <mxCell id="ix0shjDQyRabNGcpZPaB-79" value="Opción de &quot;Editar cliente&quot;" style="rounded=0;whiteSpace=wrap;html=1;" vertex="1" parent="1">
          <mxGeometry x="410" y="710" width="120" height="60" as="geometry" />
        </mxCell>
        <mxCell id="FrG5FqAlyMgNkk6xScvO-11" style="edgeStyle=orthogonalEdgeStyle;rounded=0;orthogonalLoop=1;jettySize=auto;html=1;exitX=1;exitY=0.5;exitDx=0;exitDy=0;entryX=0.5;entryY=0;entryDx=0;entryDy=0;" edge="1" parent="1" source="ix0shjDQyRabNGcpZPaB-81" target="ix0shjDQyRabNGcpZPaB-87">
          <mxGeometry relative="1" as="geometry" />
        </mxCell>
        <mxCell id="ix0shjDQyRabNGcpZPaB-81" value="Opción de&quot; Eliminar cliente&quot;" style="rounded=0;whiteSpace=wrap;html=1;" vertex="1" parent="1">
          <mxGeometry x="410" y="800" width="120" height="60" as="geometry" />
        </mxCell>
        <mxCell id="FrG5FqAlyMgNkk6xScvO-1" style="edgeStyle=orthogonalEdgeStyle;rounded=0;orthogonalLoop=1;jettySize=auto;html=1;exitX=1;exitY=0.5;exitDx=0;exitDy=0;" edge="1" parent="1" source="ix0shjDQyRabNGcpZPaB-83" target="ix0shjDQyRabNGcpZPaB-87">
          <mxGeometry relative="1" as="geometry" />
        </mxCell>
        <mxCell id="ix0shjDQyRabNGcpZPaB-83" value="Opción de &quot;Ver cliente&quot;" style="rounded=0;whiteSpace=wrap;html=1;" vertex="1" parent="1">
          <mxGeometry x="410" y="890" width="120" height="60" as="geometry" />
        </mxCell>
        <mxCell id="ix0shjDQyRabNGcpZPaB-87" value="Opción de &quot;Buscar cliente&quot;" style="rounded=0;whiteSpace=wrap;html=1;" vertex="1" parent="1">
          <mxGeometry x="590" y="890" width="120" height="60" as="geometry" />
        </mxCell>
        <mxCell id="ix0shjDQyRabNGcpZPaB-88" value="Error" style="rounded=0;whiteSpace=wrap;html=1;" vertex="1" parent="1">
          <mxGeometry x="610" y="1320" width="120" height="60" as="geometry" />
        </mxCell>
        <mxCell id="FrG5FqAlyMgNkk6xScvO-26" style="edgeStyle=orthogonalEdgeStyle;rounded=0;orthogonalLoop=1;jettySize=auto;html=1;exitX=0;exitY=0.5;exitDx=0;exitDy=0;entryX=1;entryY=0.5;entryDx=0;entryDy=0;" edge="1" parent="1" source="ix0shjDQyRabNGcpZPaB-91" target="ix0shjDQyRabNGcpZPaB-71">
          <mxGeometry relative="1" as="geometry" />
        </mxCell>
        <mxCell id="ix0shjDQyRabNGcpZPaB-91" value="Error" style="rounded=0;whiteSpace=wrap;html=1;" vertex="1" parent="1">
          <mxGeometry x="610" y="1590" width="120" height="60" as="geometry" />
        </mxCell>
        <mxCell id="FrG5FqAlyMgNkk6xScvO-24" style="edgeStyle=orthogonalEdgeStyle;rounded=0;orthogonalLoop=1;jettySize=auto;html=1;exitX=0.5;exitY=1;exitDx=0;exitDy=0;" edge="1" parent="1" source="ix0shjDQyRabNGcpZPaB-93" target="FrG5FqAlyMgNkk6xScvO-23">
          <mxGeometry relative="1" as="geometry" />
        </mxCell>
        <mxCell id="ix0shjDQyRabNGcpZPaB-93" value="Llenar el formulario" style="rounded=0;whiteSpace=wrap;html=1;" vertex="1" parent="1">
          <mxGeometry x="400" y="1045" width="120" height="60" as="geometry" />
        </mxCell>
        <mxCell id="FrG5FqAlyMgNkk6xScvO-31" style="edgeStyle=orthogonalEdgeStyle;rounded=0;orthogonalLoop=1;jettySize=auto;html=1;exitX=0;exitY=0.5;exitDx=0;exitDy=0;entryX=0.5;entryY=0;entryDx=0;entryDy=0;" edge="1" parent="1" source="ix0shjDQyRabNGcpZPaB-101" target="ix0shjDQyRabNGcpZPaB-71">
          <mxGeometry relative="1" as="geometry" />
        </mxCell>
        <mxCell id="ix0shjDQyRabNGcpZPaB-101" value="Guardar" style="rounded=0;whiteSpace=wrap;html=1;" vertex="1" parent="1">
          <mxGeometry x="400" y="1280" width="120" height="60" as="geometry" />
        </mxCell>
        <mxCell id="FrG5FqAlyMgNkk6xScvO-14" style="edgeStyle=orthogonalEdgeStyle;rounded=0;orthogonalLoop=1;jettySize=auto;html=1;exitX=1;exitY=0.5;exitDx=0;exitDy=0;entryX=0.5;entryY=1;entryDx=0;entryDy=0;" edge="1" parent="1" source="ix0shjDQyRabNGcpZPaB-87" target="ix0shjDQyRabNGcpZPaB-28">
          <mxGeometry relative="1" as="geometry" />
        </mxCell>
        <mxCell id="FrG5FqAlyMgNkk6xScvO-25" style="edgeStyle=orthogonalEdgeStyle;rounded=0;orthogonalLoop=1;jettySize=auto;html=1;exitX=0.5;exitY=1;exitDx=0;exitDy=0;entryX=0.5;entryY=0;entryDx=0;entryDy=0;" edge="1" parent="1" source="FrG5FqAlyMgNkk6xScvO-23" target="ix0shjDQyRabNGcpZPaB-101">
          <mxGeometry relative="1" as="geometry" />
        </mxCell>
        <mxCell id="FrG5FqAlyMgNkk6xScvO-23" value="Botón de confirmar" style="rounded=0;whiteSpace=wrap;html=1;" vertex="1" parent="1">
          <mxGeometry x="400" y="1160" width="120" height="60" as="geometry" />
        </mxCell>
      </root>
    </mxGraphModel>
  </diagram>
</mxfile>
